# xmcd CD database file
#
# Track frame offsets:
#	150
#	20122
#	40124
#	58039
#	77477
#	99242
#	120593
#	141975
#	164194
#	184945
#	205509
#	225727
#	244746
#	262639
#	283897
#
# Disc length: 4093 seconds
#
# Revision: 0
# Processed by: cddbd v1.5.1PL0 Copyright (c) Steve Scherf et al.
# Submitted via: CDex 1.50
#
DISCID=ce0ffb0f
DTITLE=Los Titanes - 30 èxitos - cd2
DYEAR=2003
DGENRE=Salsa
TTITLE0=Dirè que te amo
TTITLE1=Ella sabe que me gusta
TTITLE2=En trance
TTITLE3=Fue candela
TTITLE4=Hoy tengo ganas de ti
TTITLE5=Loca pasiòn
TTITLE6=No renunciarè
TTITLE7=Noche a noche
TTITLE8=Pecadora
TTITLE9=Pensàndote
TTITLE10=Tu magia
TTITLE11=Ven, devòrame otra vez
TTITLE12=Vuelve
TTITLE13=Tù la pagaràs
TTITLE14=Tu juego
EXTD=YEAR: 2003
EXTT0=
EXTT1=
EXTT2=
EXTT3=
EXTT4=
EXTT5=
EXTT6=
EXTT7=
EXTT8=
EXTT9=
EXTT10=
EXTT11=
EXTT12=
EXTT13=
EXTT14=
PLAYORDER=
